<?xml version="1.0" encoding="UTF-8"?>
<svg version="1.1" xmlns="http://www.w3.org/2000/svg" width="1080" height="320">
<path d="M0 0 C3.82689811 2.07483941 5.93705546 2.05480697 10.23168945 1.20996094 C12.0022707 -0.05473996 13.48211126 -1.47475985 15.0402832 -2.99316406 C17.92297667 -5.35686994 21.09324054 -6.96519483 24.41918945 -8.60253906 C25.02585449 -8.90426025 25.63251953 -9.20598145 26.25756836 -9.5168457 C36.49904207 -14.47344731 46.47908632 -13.64324908 57.15966797 -10.18847656 C64.61672066 -7.53455701 70.92407875 -3.5107379 77.23168945 1.20996094 C78.0848877 1.8407959 78.0848877 1.8407959 78.95532227 2.484375 C90.43442581 11.12463048 98.71223271 21.36135037 103.23168945 35.20996094 C103.48031738 35.85908447 103.72894531 36.50820801 103.98510742 37.17700195 C106.04856113 42.78155723 106.71213699 47.6939175 106.60668945 53.64746094 C106.59653809 54.48148437 106.58638672 55.31550781 106.57592773 56.17480469 C106.42213658 62.2787635 105.7719151 67.5998873 103.23168945 73.20996094 C102.71541992 74.47066406 102.71541992 74.47066406 102.1887207 75.75683594 C98.13241243 84.39365233 91.41534181 90.4616268 84.53515625 96.87231445 C81.46554506 100.02241742 82.03193802 103.47221031 82.06762695 107.62402344 C82.28212849 111.00497624 83.23343625 113.98031822 84.23168945 117.20996094 C86.82354283 135.09374925 87.46530555 156.05733103 81.23168945 173.20996094 C80.85786133 174.33660156 80.4840332 175.46324219 80.09887695 176.62402344 C76.06926177 188.01902796 69.98356696 197.98309617 62.23168945 207.20996094 C61.61165039 207.98726562 60.99161133 208.76457031 60.3527832 209.56542969 C44.49805313 228.4888172 21.20508432 239.22424345 -1.84521484 246.57202148 C-3.38981612 247.08440477 -4.90745139 247.67773222 -6.4128418 248.29589844 C-9.37687099 249.44611872 -12.35082704 250.09623306 -15.45581055 250.77246094 C-19.73584982 251.64040403 -19.73584982 251.64040403 -23.76831055 253.20996094 C-43.36158521 257.03422321 -63.18172876 257.58778437 -83.08081055 257.52246094 C-84.71034668 257.51836716 -84.71034668 257.51836716 -86.37280273 257.51419067 C-113.99411736 257.4033277 -113.99411736 257.4033277 -126.2409668 254.73339844 C-128.88733503 254.18530981 -131.53224793 253.79052285 -134.20581055 253.39746094 C-169.67416567 247.49363742 -206.31420119 231.18057207 -228.27783203 201.83886719 C-239.6200675 185.95938622 -246.43996269 166.77011195 -246.76831055 147.20996094 C-246.80698242 145.96988281 -246.8456543 144.72980469 -246.88549805 143.45214844 C-247.0117818 136.2820378 -246.70949456 129.27364554 -245.89331055 122.14746094 C-245.81491943 121.45749023 -245.73652832 120.76751953 -245.65576172 120.05664062 C-245.09285997 115.62034878 -244.02502708 111.49305605 -242.76831055 107.20996094 C-242.27754066 104.22401361 -242.4171107 102.32058814 -242.76831055 99.20996094 C-244.38812217 97.2243854 -245.84607343 95.85568135 -247.76831055 94.20996094 C-259.00599184 83.26634981 -266.62747287 69.18089485 -267.14331055 53.27246094 C-266.67795998 38.24551569 -260.40962074 25.4923452 -250.76831055 14.20996094 C-250.16245117 13.45972656 -249.5565918 12.70949219 -248.93237305 11.93652344 C-239.40179712 0.53873264 -224.51922642 -9.92141749 -209.4909668 -12.1237793 C-194.52747896 -13.24765333 -183.34708393 -10.06815351 -171.74487305 -0.20410156 C-168.75847463 1.93241272 -166.38887161 2.13292772 -162.76831055 2.20996094 C-162.76831055 1.54996094 -162.76831055 0.88996094 -162.76831055 0.20996094 C-154.26379419 -5.02563195 -145.85878853 -9.16742179 -136.4362793 -12.48535156 C-133.50024143 -13.52969304 -130.6815775 -14.66631602 -127.83081055 -15.91503906 C-121.3654804 -18.53169882 -114.5422726 -19.92271379 -107.73852539 -21.3671875 C-106.10426022 -21.71793685 -104.47629852 -22.09790806 -102.8503418 -22.48535156 C-68.30835442 -29.73049515 -29.13595547 -18.64940092 0 0 Z " fill="#f2f3e2" transform="translate(293.768310546875,63.7900390625)"/>
<path d="M0 0 C1.67754364 -0.00472824 1.67754364 -0.00472824 3.38897705 -0.009552 C5.20302032 -0.00651566 5.20302032 -0.00651566 7.05371094 -0.00341797 C8.29803894 -0.00437469 9.54236694 -0.00533142 10.82440186 -0.00631714 C13.46060646 -0.00699835 16.09671872 -0.00564924 18.73291016 -0.00097656 C21.42922164 0.00357184 24.12546592 0.00360274 26.82177734 -0.00097656 C30.71160891 -0.00717132 34.60137664 -0.00639957 38.49121094 -0.00341797 C40.29310883 -0.00645432 40.29310883 -0.00645432 42.13140869 -0.009552 C47.71187202 0.00600146 53.02157612 0.19853239 58.53808594 1.12939453 C60.74721773 1.31849542 62.9584078 1.48479996 65.17089844 1.62939453 C66.99814453 1.75314453 66.99814453 1.75314453 68.86230469 1.87939453 C71.40393775 2.04657286 73.94560472 2.21323641 76.48730469 2.37939453 C77.70289063 2.46189453 78.91847656 2.54439453 80.17089844 2.62939453 C81.27320801 2.70158203 82.37551758 2.77376953 83.51123047 2.84814453 C86.25573616 3.10315909 88.84603736 3.55535476 91.53808594 4.12939453 C103.14303208 5.34386564 114.91736035 6.08304478 126.46777344 4.21923828 C134.31982444 2.96015325 142.17988525 2.15872056 150.10058594 1.50439453 C151.28572784 1.40634018 151.28572784 1.40634018 152.49481201 1.30630493 C167.87750826 0.08053842 183.23657627 -0.17177474 198.66308594 -0.18310547 C199.75525421 -0.1865094 200.84742249 -0.18991333 201.97268677 -0.19342041 C244.69781457 -0.26980214 244.69781457 -0.26980214 257.53808594 5.12939453 C258.83105469 7.52001953 258.83105469 7.52001953 259.53808594 10.12939453 C259.92996094 11.26376953 260.32183594 12.39814453 260.72558594 13.56689453 C261.58801206 17.34830136 261.76161174 19.45881713 260.53808594 23.12939453 C258.88423361 24.47858985 257.21638394 25.81073181 255.53808594 27.12939453 C252.60939726 32.71061763 251.81899434 37.98146518 251.10058594 44.19189453 C249.03454072 59.96074133 245.47282057 77.44809799 232.53808594 88.12939453 C214.35010319 99.21749004 192.94090091 99.51018354 172.48486328 94.640625 C156.64478016 90.3746676 145.5448137 81.91901016 137.05761719 67.89501953 C134.07571277 62.46780018 132.05719759 56.8413854 130.24511719 50.93408203 C127.28775538 40.37564183 127.28775538 40.37564183 119.81152344 32.89111328 C115.27881272 31.37242155 111.20998802 31.08500509 106.53808594 32.12939453 C101.32330984 34.91187034 98.88224467 38.79484952 96.53808594 44.12939453 C95.99104948 46.07796236 95.4462829 48.02770334 94.95458984 49.9909668 C92.49687312 59.69662088 88.48907725 67.13629528 82.53808594 75.12939453 C81.94898438 75.93248047 81.35988281 76.73556641 80.75292969 77.56298828 C70.75816245 90.0623544 53.00435555 94.99161545 37.85058594 97.81689453 C21.64265114 99.4209788 5.89165463 98.28971853 -7.46191406 88.12939453 C-9.93727165 85.91430944 -12.22891518 83.58779002 -14.46191406 81.12939453 C-14.92855469 80.61763672 -15.39519531 80.10587891 -15.87597656 79.57861328 C-23.81706208 69.76187259 -24.70275751 54.99259559 -26.61621094 42.97509766 C-26.81408203 41.78980469 -27.01195313 40.60451172 -27.21582031 39.38330078 C-27.38412354 38.3244165 -27.55242676 37.26553223 -27.72583008 36.17456055 C-28.88379276 31.38409005 -30.60214283 27.98916576 -34.08691406 24.50439453 C-36.52859717 22.06271143 -37.00099709 21.39771489 -37.46191406 18.12939453 C-37.19238281 15.91064453 -37.19238281 15.91064453 -36.64941406 13.62939453 C-36.39224609 12.50017578 -36.39224609 12.50017578 -36.12988281 11.34814453 C-34.84527621 7.08114717 -34.84527621 7.08114717 -33.46191406 5.12939453 C-26.36278705 2.38510513 -18.47043997 1.76526328 -10.92285156 1.34033203 C-7.11813884 1.0142138 -3.90232001 0.0031525 0 0 Z " fill="#f2f3e2" transform="translate(101.4619140625,158.87060546875)"/>
<path d="M0 0 C0.97453125 0.21785156 1.9490625 0.43570313 2.953125 0.66015625 C5.99104628 1.37289932 8.99372765 2.16426421 12 3 C13.32837891 3.36158203 13.32837891 3.36158203 14.68359375 3.73046875 C53.88136737 15.57320035 89.470205 45.62919434 109.046875 81.3359375 C113.48348156 89.64838993 117.19599432 97.99766599 120 107 C114.23594553 106.60030279 108.48126797 106.18964404 102.74267578 105.51245117 C89.18867602 103.94081305 75.76058806 103.64500234 62.125 103.6875 C61.00068573 103.68832581 59.87637146 103.68915161 58.71798706 103.69000244 C43.62069542 103.71535698 28.61036919 104.12999377 13.5625 105.375 C12.79947571 105.43803314 12.03645142 105.50106628 11.25030518 105.56600952 C3.03541301 106.26614875 -5.08135549 107.28481189 -13.22338867 108.59863281 C-26.85709837 110.56942493 -41.25092747 108.54597489 -54.80810547 106.7331543 C-60.57848077 105.98901719 -66.34290087 105.60773735 -72.15356445 105.34179688 C-75.12036537 105.20029718 -77.99586043 105.00071775 -80.92456055 104.49291992 C-86.59503385 103.66369677 -92.32962806 103.85755347 -98.046875 103.8671875 C-99.29502991 103.86623077 -100.54318481 103.86527405 -101.8291626 103.86428833 C-105.12906666 103.8634365 -108.42892306 103.86744246 -111.7288208 103.87304688 C-114.42611304 103.87565335 -117.12337198 103.87083741 -119.82065964 103.86605644 C-123.04190096 103.86157713 -126.26313265 103.86471078 -129.484375 103.8671875 C-131.29841827 103.86415115 -131.29841827 103.86415115 -133.14910889 103.86105347 C-134.82665253 103.86578171 -134.82665253 103.86578171 -136.53808594 103.87060547 C-137.52290955 103.87140106 -138.50773315 103.87219666 -139.5223999 103.87301636 C-142.13409825 103.89622474 -142.13409825 103.89622474 -145 105 C-147.75024135 105.3908538 -150.49145689 105.74420656 -153.25 106.0625 C-154.35794922 106.19881836 -154.35794922 106.19881836 -155.48828125 106.33789062 C-160.02681922 106.87018829 -164.43087612 107.09065722 -169 107 C-168.41284902 101.83628864 -166.78050758 97.75381573 -164.5625 93.125 C-164.03450806 92.01668823 -164.03450806 92.01668823 -163.49584961 90.88598633 C-155.28670798 74.068958 -144.30518547 58.9697699 -131.39404297 45.46142578 C-130.0340334 44.03567845 -128.69059918 42.59417792 -127.34765625 41.15234375 C-115.66300865 28.95295397 -100.62799867 18.46257595 -85 12 C-83.42412109 11.29230469 -83.42412109 11.29230469 -81.81640625 10.5703125 C-56.53723187 -0.6581323 -27.41467163 -6.68751838 0 0 Z " fill="#131310" transform="translate(238,56)"/>
<path d="M0 0 C2 0 2 0 3.83984375 1.6953125 C9.39978234 8.13531586 11.37325195 13.54840315 12.65820312 21.88378906 C13.85541917 29.2962667 15.46978661 36.65033871 17 44 C17.21140625 45.03898437 17.4228125 46.07796875 17.640625 47.1484375 C19.96597802 56.59891067 27.11043617 64.51010657 35 70 C49.44096614 78.5013095 66.99046682 78.96275574 83 75 C84.08667969 74.74347656 85.17335938 74.48695313 86.29296875 74.22265625 C104.3013151 69.5656699 116.56380961 61.41528215 126.515625 45.58984375 C128.95241785 41.09411516 130.41624756 36.6128971 131.71459961 31.69604492 C133.88239757 23.50727443 136.24661487 17.60545874 143 12 C145.46089547 10.76955227 147.31309623 10.65467813 150.0625 10.5 C151.41021484 10.39171875 151.41021484 10.39171875 152.78515625 10.28125 C157.94322176 11.43445055 161.44944039 14.13232838 165 18 C166.94136186 21.61273529 168.06760281 25.31554468 169.1875 29.25 C169.84526846 31.31581671 170.50925684 33.37966408 171.1796875 35.44140625 C171.49131836 36.41352051 171.80294922 37.38563477 172.12402344 38.38720703 C175.948063 49.79324699 184.89195488 62.12217324 195.67578125 67.984375 C214.55687311 76.23493615 240.2216201 80.46619754 260 73 C272.55283332 67.62738734 278.86734292 59.47847822 284 47 C285.93848274 41.39543274 286.92586118 35.719988 287.703125 29.85546875 C287.82598877 28.9337085 287.94885254 28.01194824 288.07543945 27.06225586 C288.31127737 25.23041703 288.53194992 23.39654156 288.73510742 21.56079102 C289.61857688 14.43902703 291.32811847 8.54464908 296.625 3.5 C299 2 299 2 301 2 C304.55955358 30.31752002 302.64750834 56.39129319 285 80 C259.55874901 111.28871259 217.96490082 123.61986009 179.22393799 127.72564697 C170.47697079 128.47000277 161.69881493 128.40205818 152.92700195 128.33618164 C149.54028845 128.31234366 146.1543559 128.31568557 142.76757812 128.32226562 C131.0127312 128.30705031 119.61269775 127.88479268 108 126 C107.15107178 125.87439697 106.30214355 125.74879395 105.42749023 125.61938477 C72.14915244 120.58014682 35.45170377 107.45672766 14.625 79.4375 C13.40271592 77.63437845 12.19340602 75.82236324 11 74 C10.46890625 73.27039063 9.9378125 72.54078125 9.390625 71.7890625 C3.75522201 63.51024883 1.55502032 53.56899504 -1 44 C-1.18626953 43.34845947 -1.37253906 42.69691895 -1.56445312 42.02563477 C-2.45938696 37.86349015 -2.19024386 33.55211034 -2.1875 29.3125 C-2.18814453 28.29406006 -2.18878906 27.27562012 -2.18945312 26.22631836 C-2.12843165 17.37335087 -1.31493032 8.74663472 0 0 Z " fill="#131310" transform="translate(63,179)"/>
<path d="M0 0 C9.24 0 18.48 0 28 0 C28 33.33 28 66.66 28 101 C20.41 101 12.82 101 5 101 C4.34 98.03 3.68 95.06 3 92 C2.01 92.9075 1.02 93.815 0 94.75 C-7.28855949 101.00367274 -14.53076328 103.39163084 -24.0546875 103.27734375 C-31.77125694 102.55071719 -39.00890982 98.97148289 -44 93 C-49.94101249 83.44065809 -51.36183553 74.82132088 -51.375 63.75 C-51.39949219 62.68136719 -51.42398438 61.61273438 -51.44921875 60.51171875 C-51.48326771 51.17095471 -49.44047183 42.10834627 -43.625 34.56640625 C-36.09852196 27.31131564 -27.99280229 25.53949931 -17.8828125 25.7109375 C-10.68986184 26.2464288 -5.70141943 28.72393543 0 33 C0 22.11 0 11.22 0 0 Z " fill="#f2f3e2" transform="translate(744,193)"/>
<path d="M0 0 C14.293125 -0.0928125 14.293125 -0.0928125 28.875 -0.1875 C31.8641748 -0.21481201 34.85334961 -0.24212402 37.93310547 -0.27026367 C40.32779538 -0.2790334 42.7224898 -0.28667619 45.1171875 -0.29296875 C46.33994385 -0.30831665 47.5627002 -0.32366455 48.82250977 -0.33947754 C60.33388742 -0.34296513 68.3798925 1.35376448 76.796875 9.453125 C84.18866196 17.99824042 85.73219765 27.03059449 85 38 C83.43528759 47.13632924 79.24318284 55.01282843 71.625 60.4375 C63.30533777 65.90604203 54.06354511 65.25036898 44.5 65.125 C40.045 65.08375 35.59 65.0425 31 65 C31 75.23 31 85.46 31 96 C20.77 96 10.54 96 0 96 C0 64.32 0 32.64 0 0 Z " fill="#f2f3e2" transform="translate(411,198)"/>
<path d="M0 0 C14.293125 -0.0928125 14.293125 -0.0928125 28.875 -0.1875 C31.8641748 -0.21481201 34.85334961 -0.24212402 37.93310547 -0.27026367 C40.32779538 -0.2790334 42.7224898 -0.28667619 45.1171875 -0.29296875 C46.33994385 -0.30831665 47.5627002 -0.32366455 48.82250977 -0.33947754 C60.33388742 -0.34296513 68.3798925 1.35376448 76.796875 9.453125 C84.18866196 17.99824042 85.73219765 27.03059449 85 38 C83.43528759 47.13632924 79.24318284 55.01282843 71.625 60.4375 C63.30533777 65.90604203 54.06354511 65.25036898 44.5 65.125 C40.045 65.08375 35.59 65.0425 31 65 C31 75.23 31 85.46 31 96 C20.77 96 10.54 96 0 96 C0 64.32 0 32.64 0 0 Z " fill="#f2f3e2" transform="translate(411,60)"/>
<path d="M0 0 C0.88945313 -0.00322266 1.77890625 -0.00644531 2.6953125 -0.00976562 C13.68867379 0.07915127 22.52328212 3.37384373 31.625 9.5 C38.60745013 16.64114217 42.58825719 25.13834344 42.65356445 35.21044922 C42.64413818 35.88350098 42.63471191 36.55655273 42.625 37.25 C42.61376099 38.30985107 42.61376099 38.30985107 42.60229492 39.39111328 C42.38000657 50.1379479 39.22363572 59.97798061 31.375 67.625 C24.47310092 73.3265688 15.31647885 76.84189585 6.375 77.3125 C4.85326172 77.4053125 4.85326172 77.4053125 3.30078125 77.5 C-9.53051669 77.95170686 -21.01919436 74.99384308 -30.74609375 66.44921875 C-38.78048284 58.38534567 -40.9655749 48.77245005 -41.125 37.6875 C-40.99694702 27.21160205 -38.11250269 17.91247591 -30.625 10.3125 C-21.36216389 2.347743 -12.05751364 -0.2203493 0 0 Z " fill="#f2f3e2" transform="translate(1011.625,80.6875)"/>
<path d="M0 0 C6.68335098 5.22923278 10.34485119 12.03455358 13 20 C14.18222638 33.98451504 13.81738217 47.00059703 4.6328125 58.28515625 C-3.69157809 67.02775786 -14.38937814 69.46659865 -26.08984375 70.19140625 C-38.96647909 70.43998994 -50.73953468 67.63752486 -60.46875 58.734375 C-67.55569088 50.70732972 -69.36097764 41.62654895 -69.375 31.25 C-69.39949219 30.3115625 -69.42398438 29.373125 -69.44921875 28.40625 C-69.4893397 18.72372646 -66.68993808 10.87596996 -59.97265625 3.81640625 C-44.64477407 -10.29738626 -17.43824123 -11.70098438 0 0 Z " fill="#f2f3e2" transform="translate(638,88)"/>
<path d="M0 0 C4.43065437 3.02680234 7.27074592 6.68215944 9.3828125 11.64453125 C9.92311955 14.62951306 9.94124248 17.54243357 9.921875 20.5703125 C9.93366791 21.39911423 9.94546082 22.22791595 9.95761108 23.08183289 C9.99268411 25.70709396 10.00202686 28.33155554 10.0078125 30.95703125 C10.02415011 33.60012092 10.04612017 36.24285642 10.07943726 38.88578796 C10.0990907 40.52502779 10.10839958 42.16443087 10.10635376 43.80378723 C9.97126849 48.19210612 9.97126849 48.19210612 12.3828125 51.64453125 C14.6928125 51.97453125 17.0028125 52.30453125 19.3828125 52.64453125 C19.3828125 57.92453125 19.3828125 63.20453125 19.3828125 68.64453125 C11.76817061 72.45185219 2.80210179 72.89541945 -5.3671875 70.45703125 C-9.56000789 68.90799636 -12.39012337 66.70610491 -15.6171875 63.64453125 C-18.79535346 64.87478904 -21.89523314 66.22575558 -24.9921875 67.64453125 C-34.76615709 71.93164066 -45.15437381 73.57814178 -55.6171875 70.45703125 C-60.9263277 68.33534883 -64.37021583 65.5981202 -67.4921875 60.70703125 C-69.75153239 54.55133111 -69.7853885 46.64979183 -67.9609375 40.39453125 C-63.83256369 32.42249907 -56.9632493 29.01736658 -48.77734375 26.40625 C-41.70089119 24.70055377 -34.8547771 24.50976653 -27.6171875 24.58203125 C-26.74707031 24.58654297 -25.87695312 24.59105469 -24.98046875 24.59570312 C-22.85934457 24.60735765 -20.7382564 24.62528768 -18.6171875 24.64453125 C-18.78190407 19.20034911 -18.78190407 19.20034911 -21.30078125 14.66015625 C-24.24311248 13.37009534 -26.473814 13.31507961 -29.6796875 13.39453125 C-30.72253906 13.41 -31.76539063 13.42546875 -32.83984375 13.44140625 C-35.70252034 13.53620502 -35.70252034 13.53620502 -38.6171875 14.64453125 C-38.9471875 15.96453125 -39.2771875 17.28453125 -39.6171875 18.64453125 C-48.5271875 18.64453125 -57.4371875 18.64453125 -66.6171875 18.64453125 C-66.6171875 12.3228608 -66.43899077 9.34081493 -62.6171875 4.64453125 C-57.358552 -0.52928755 -51.69478754 -2.68236262 -44.6171875 -4.35546875 C-44.00552734 -4.52675293 -43.39386719 -4.69803711 -42.76367188 -4.87451172 C-29.5550865 -7.83412423 -12.04118217 -6.23625405 0 0 Z " fill="#f2f3e2" transform="translate(574.6171875,224.35546875)"/>
<path d="M0 0 C4.93090519 4.57818351 6.53007107 8.61786527 6.86523438 15.21142578 C6.90010584 16.70075245 6.930444 18.19018991 6.95703125 19.6796875 C6.97544067 20.46834198 6.9938501 21.25699646 7.01281738 22.06954956 C7.09134291 25.43701915 7.15937768 28.80468008 7.22802734 32.17236328 C7.27970054 34.63324006 7.33695082 37.09394302 7.39453125 39.5546875 C7.40810669 40.31927277 7.42168213 41.08385803 7.43566895 41.87161255 C7.45339363 45.80727074 7.45339363 45.80727074 8.67578125 49.484375 C10.98578125 49.814375 13.29578125 50.144375 15.67578125 50.484375 C15.67578125 55.764375 15.67578125 61.044375 15.67578125 66.484375 C6.30220345 70.11285673 -1.48397773 70.63982009 -11.1171875 67.484375 C-14.34248887 66.02299951 -16.10756781 64.21824449 -18.32421875 61.484375 C-22.85052327 63.24733781 -27.21660016 65.28596564 -31.60546875 67.36328125 C-41.06872447 71.26551457 -52.61272703 70.6935825 -61.97265625 66.828125 C-66.65940594 64.14998232 -69.62681502 60.57658619 -71.32421875 55.484375 C-72.61457842 38.9124701 -72.61457842 38.9124701 -68.0703125 33.09375 C-62.4346417 27.89935096 -55.88764826 24.60650231 -48.32421875 23.484375 C-47.62425781 23.37480469 -46.92429687 23.26523438 -46.203125 23.15234375 C-37.96027749 22.10982509 -29.61550092 22.39780709 -21.32421875 22.484375 C-21.4879141 17.04126888 -21.4879141 17.04126888 -24.0078125 12.50390625 C-26.94272406 11.21214922 -29.18537561 11.12030442 -32.38671875 11.171875 C-33.42957031 11.17574219 -34.47242188 11.17960937 -35.546875 11.18359375 C-38.53425039 11.29080892 -38.53425039 11.29080892 -41.32421875 13.484375 C-41.65421875 14.474375 -41.98421875 15.464375 -42.32421875 16.484375 C-51.23421875 16.484375 -60.14421875 16.484375 -69.32421875 16.484375 C-69.32421875 7.084375 -69.32421875 7.084375 -65.32421875 2.484375 C-50.08038236 -11.30927341 -16.32181903 -13.22202436 0 0 Z " fill="#f2f3e2" transform="translate(856.32421875,226.515625)"/>
<path d="M0 0 C1.30880127 0.01522705 1.30880127 0.01522705 2.64404297 0.03076172 C14.67242877 0.31720473 26.18258543 2.41443619 35.05859375 11.15625 C43.17920275 21.03868688 43.25 30.48697858 43.25 43.375 C25.1 43.375 6.95 43.375 -11.75 43.375 C-10.1820661 51.55754405 -10.1820661 51.55754405 -5.01953125 57.4921875 C-2.17376946 58.59914475 0.13854616 58.64037934 3.1875 58.625 C4.20714844 58.63015625 5.22679687 58.6353125 6.27734375 58.640625 C10.51997531 58.26892593 10.51997531 58.26892593 14.25 56.375 C14.91 53.735 15.57 51.095 16.25 48.375 C25.16 48.375 34.07 48.375 43.25 48.375 C43.25 56.27001901 41.78886985 61.16248741 36.7109375 67.20703125 C32.22589011 71.40512063 27.01684058 73.46496363 21.25 75.375 C20.033125 75.7875 18.81625 76.2 17.5625 76.625 C3.97381241 79.69341333 -11.94253596 77.73241107 -24.08984375 71.05859375 C-32.89054715 65.48869189 -36.82379627 57.99393321 -39.36328125 47.94921875 C-41.20987029 35.65727758 -39.90803229 23.83054226 -32.625 13.5 C-24.36988519 3.76319792 -12.43276053 -0.21064268 0 0 Z " fill="#f2f3e2" transform="translate(762.75,80.625)"/>
<path d="M0 0 C5.36697855 3.8255193 9.0812274 8.95614404 10.86328125 15.328125 C11.27115352 19.71535374 11.21255983 24.07762639 11.15625 28.48046875 C11.15200516 29.73573868 11.14776031 30.99100861 11.14338684 32.28431702 C11.12948753 35.60041837 11.10259627 38.91588552 11.0692749 42.23181152 C11.03843046 45.6238857 11.0246859 49.01602768 11.00976562 52.40820312 C10.97931472 59.04853098 10.92058068 65.6877578 10.86328125 72.328125 C1.62328125 72.328125 -7.61671875 72.328125 -17.13671875 72.328125 C-17.15089844 68.76515625 -17.16507813 65.2021875 -17.1796875 61.53125 C-17.21029626 58.0825856 -17.24938829 54.63411458 -17.28930664 51.18554688 C-17.3125114 48.78782992 -17.32688812 46.39001068 -17.33227539 43.9921875 C-17.3415464 40.54622468 -17.38249941 37.10187629 -17.4296875 33.65625 C-17.42575485 32.58320618 -17.4218222 31.51016235 -17.41777039 30.40460205 C-17.42075516 24.4859219 -17.42075516 24.4859219 -20.49731445 19.65136719 C-23.77202611 18.00961923 -25.51412905 17.73668178 -29.13671875 18.328125 C-33.36153621 20.6040073 -33.36153621 20.6040073 -36.13671875 24.328125 C-36.25494846 25.86954675 -36.31371686 27.41573597 -36.34204102 28.96142578 C-36.36198624 29.92227081 -36.38193146 30.88311584 -36.40248108 31.87307739 C-36.42754982 33.43250565 -36.42754982 33.43250565 -36.453125 35.0234375 C-36.4739061 36.08601776 -36.49468719 37.14859802 -36.51609802 38.24337769 C-36.58162136 41.64655938 -36.64049148 45.04981989 -36.69921875 48.453125 C-36.74240132 50.75651866 -36.78601552 53.05990426 -36.83007812 55.36328125 C-36.93811995 61.01814946 -37.03717293 66.67307522 -37.13671875 72.328125 C-46.37671875 72.328125 -55.61671875 72.328125 -65.13671875 72.328125 C-65.13671875 48.238125 -65.13671875 24.148125 -65.13671875 -0.671875 C-57.54671875 -0.671875 -49.95671875 -0.671875 -42.13671875 -0.671875 C-41.47671875 2.298125 -40.81671875 5.268125 -40.13671875 8.328125 C-39.67523437 7.86921875 -39.21375 7.4103125 -38.73828125 6.9375 C-28.39245987 -2.79493276 -13.28254012 -7.10403276 0 0 Z " fill="#f2f3e2" transform="translate(668.13671875,221.671875)"/>
<path d="M0 0 C0.88558594 -0.00322266 1.77117188 -0.00644531 2.68359375 -0.00976562 C14.26098461 0.08373753 25.30733745 3.00015479 34.5 10.3125 C40.37954415 16.99231544 41.5 22.27664275 41.5 31.3125 C32.59 31.3125 23.68 31.3125 14.5 31.3125 C13.84 29.0025 13.18 26.6925 12.5 24.3125 C10.88710838 22.29638547 9.79800564 21.46150282 7.5 20.3125 C-1.30409571 19.68449674 -1.30409571 19.68449674 -9.5 22.3125 C-11.81096242 27.40458615 -11.83392617 32.2691857 -11.8125 37.75 C-11.82861328 38.57048828 -11.84472656 39.39097656 -11.86132812 40.23632812 C-11.8656794 45.68847922 -11.0752144 49.48631128 -8.5 54.3125 C-4.9251321 57.57193838 -1.43504036 57.79145182 3.21875 57.58203125 C6.95375288 57.1407381 9.34423085 56.39530764 12.5 54.3125 C13.49 51.3425 14.48 48.3725 15.5 45.3125 C24.08 45.3125 32.66 45.3125 41.5 45.3125 C41.5 54.01184382 40.12023464 60.29535066 34.17578125 66.90234375 C24.2768655 75.23220059 13.74278608 76.68863271 1.3125 76.75 C0.15685547 76.78287109 -0.99878906 76.81574219 -2.18945312 76.84960938 C-14.18177594 76.92367762 -23.69253664 73.24396001 -32.3671875 64.91796875 C-40.46347249 55.02745211 -41.35297145 42.55873296 -40.5 30.3125 C-38.70875174 21.1080737 -34.70784478 13.24425036 -27.140625 7.53125 C-18.38155028 1.98202254 -10.31685233 -0.18771565 0 0 Z " fill="#f2f3e2" transform="translate(856.5,80.6875)"/>
<path d="M0 0 C6.93 0 13.86 0 21 0 C21 7.26 21 14.52 21 22 C26.28 22 31.56 22 37 22 C37 28.27 37 34.54 37 41 C31.72 41 26.44 41 21 41 C21.07405864 45.62738836 21.15693041 50.2528631 21.26245117 54.87939453 C21.29566372 56.45253522 21.32370717 58.02579401 21.34643555 59.59912109 C21.38005028 61.86346672 21.43236624 64.12673365 21.48828125 66.390625 C21.49467117 67.09181458 21.5010611 67.79300415 21.50764465 68.51544189 C21.62923871 72.57212403 21.99313224 75.1532613 25 78 C29.00991576 78.83741213 32.88864287 78.82316744 37 79 C37 84.61 37 90.22 37 96 C30.92589321 97.01235113 25.25797751 97.25647402 19.125 97.3125 C17.54912109 97.35600586 17.54912109 97.35600586 15.94140625 97.40039062 C9.41458805 97.45348739 4.41333406 96.83486974 -1 93 C-6.86973274 86.97580061 -7.28796881 81.33889935 -7.1953125 73.32421875 C-7.1924826 72.3990596 -7.18965271 71.47390045 -7.18673706 70.52070618 C-7.17557392 67.57617058 -7.15047637 64.63194312 -7.125 61.6875 C-7.11496521 59.68685336 -7.10584023 57.68620194 -7.09765625 55.68554688 C-7.07564722 50.7902465 -7.04114391 45.89517543 -7 41 C-10.3 41 -13.6 41 -17 41 C-17 34.73 -17 28.46 -17 22 C-13.04 22 -9.08 22 -5 22 C-4.9175 20.96875 -4.835 19.9375 -4.75 18.875 C-3.96767473 12.40622088 -1.85494847 6.22305292 0 0 Z " fill="#f2f3e2" transform="translate(677,60)"/>
<path d="M0 0 C6.93 0 13.86 0 21 0 C21 7.59 21 15.18 21 23 C25.95 23 30.9 23 36 23 C36 28.94 36 34.88 36 41 C31.05 41 26.1 41 21 41 C21.11988624 45.64495426 21.24253211 50.28966228 21.37231445 54.93432617 C21.41562305 56.51436015 21.45730106 58.09443969 21.49731445 59.67456055 C21.55511583 61.94594048 21.6187816 64.21709189 21.68359375 66.48828125 C21.70030624 67.19463211 21.71701874 67.90098297 21.73423767 68.6287384 C21.8259747 71.6664824 22.03207686 74.09623058 23 77 C25.56893838 78.28446919 27.76576337 78.32977144 30.625 78.5625 C32.39875 78.706875 34.1725 78.85125 36 79 C36 84.28 36 89.56 36 95 C30.07891291 97.36843484 25.47537406 97.36740136 19.1875 97.375 C17.60485352 97.41173828 17.60485352 97.41173828 15.99023438 97.44921875 C8.03943469 97.47894137 2.96496697 96.13023708 -3.375 91.125 C-7.52081313 85.70355206 -7.27093028 79.7296177 -7.1953125 73.2265625 C-7.1924826 72.3028183 -7.18965271 71.3790741 -7.18673706 70.42733765 C-7.17559179 67.49309024 -7.15049765 64.5591543 -7.125 61.625 C-7.11496289 59.62891068 -7.10583832 57.63281654 -7.09765625 55.63671875 C-7.07567097 50.75769351 -7.04118017 45.87889946 -7 41 C-10.3 41 -13.6 41 -17 41 C-17 35.06 -17 29.12 -17 23 C-13.37 22.67 -9.74 22.34 -6 22 C-5.65066406 20.57945313 -5.30132813 19.15890625 -4.94140625 17.6953125 C-4.48189477 15.83851099 -4.02225258 13.98174183 -3.5625 12.125 C-3.33240234 11.18785156 -3.10230469 10.25070313 -2.86523438 9.28515625 C-2.64287109 8.38925781 -2.42050781 7.49335937 -2.19140625 6.5703125 C-1.98717041 5.74289551 -1.78293457 4.91547852 -1.57250977 4.06298828 C-1 2 -1 2 0 0 Z " fill="#f2f3e2" transform="translate(925,60)"/>
<path d="M0 0 C0 7.92 0 15.84 0 24 C-7.125 24.3125 -7.125 24.3125 -9.33251953 24.38793945 C-13.89699624 24.64234682 -17.17742744 25.49039802 -21 28 C-24.66325932 32.52073416 -24.47094247 36.89876422 -24.51171875 42.45703125 C-24.53864555 43.81147591 -24.53864555 43.81147591 -24.56611633 45.19328308 C-24.62013021 48.06630844 -24.65408637 50.93916851 -24.6875 53.8125 C-24.72068096 55.76499691 -24.75517134 57.71747204 -24.79101562 59.66992188 C-24.87830792 64.4466372 -24.93845206 69.22260647 -25 74 C-34.24 74 -43.48 74 -53 74 C-53 49.91 -53 25.82 -53 1 C-45.41 1 -37.82 1 -30 1 C-29.34 3.64 -28.68 6.28 -28 9 C-27.48953125 8.29423828 -27.48953125 8.29423828 -26.96875 7.57421875 C-20.31023747 -0.97913644 -10.43470208 -3.47823403 0 0 Z " fill="#f2f3e2" transform="translate(563,82)"/>
<path d="M0 0 C3.78986889 1.57911204 5.83327915 3.53324664 8 7 C10.33659715 14.00979145 10.14476183 24.68967961 7.9375 31.8125 C5.51899271 35.79133458 3.44387407 37.63001955 -1 39 C-5.70976768 39.78632643 -9.02566315 39.45108187 -13.375 37.4375 C-17.60204466 33.5123871 -19.11561096 29.23474309 -19.3984375 23.58984375 C-19.40630283 22.03906277 -19.39827879 20.4881262 -19.375 18.9375 C-19.39240234 17.77250977 -19.39240234 17.77250977 -19.41015625 16.58398438 C-19.37922404 10.49549393 -17.99447006 6.3684332 -14 1.625 C-9.42621035 -0.85246939 -5.09068156 -0.6363352 0 0 Z " fill="#131310" transform="translate(615,100)"/>
<path d="M0 0 C3.36337494 2.44009554 4.71881164 4.57821745 7 8 C7.4603122 11.58850107 7.37032658 15.19760953 7.375 18.8125 C7.39949219 19.79798828 7.42398437 20.78347656 7.44921875 21.79882812 C7.4736406 27.85951847 7.07636099 31.41224099 3 36 C-1.47548107 39.05146436 -5.70867264 39.95053785 -11 39 C-15.47113247 36.72225327 -17.95825657 34.56458731 -20 30 C-20.4646672 26.34850594 -20.46409111 22.73932573 -20.4375 19.0625 C-20.45748047 18.08603516 -20.47746094 17.10957031 -20.49804688 16.10351562 C-20.49396892 10.08853329 -20.04005662 6.5514562 -16 2 C-11.12812143 -1.24791905 -5.6909565 -0.71404724 0 0 Z " fill="#131310" transform="translate(1019,100)"/>
<path d="M0 0 C1.875 2.25 1.875 2.25 2.5 5.125 C1.26076298 11.32118511 -3.36378809 14.69253874 -8.28125 18.171875 C-14.33564517 21.71215692 -20.23923077 22.36475716 -27.125 21.25 C-33.43142684 18.26878004 -39.44566183 13.24329694 -43.125 7.25 C-43.88760528 3.97079729 -43.52587025 2.91811708 -41.8125 0.0625 C-31.48745775 -6.90090059 -10.65438434 -5.96645523 0 0 Z " fill="#f2f3e2" transform="translate(233.125,253.75)"/>
<path d="M0 0 C3.18459646 1.51992104 5.73579966 3.28295959 8 6 C9.32798292 9.98394876 9.22332082 13.64054275 9.25 17.8125 C9.270625 18.60720703 9.29125 19.40191406 9.3125 20.22070312 C9.34573241 25.24295051 8.7707739 28.64305844 6 33 C2.35646866 36.2148806 -1.15426987 36.52727004 -5.84765625 36.34765625 C-9.20531969 35.80531134 -10.7939555 34.54029366 -13 32 C-15.06367651 27.1142641 -15.36583423 22.71532139 -15.375 17.5 C-15.39949219 16.76652344 -15.42398438 16.03304687 -15.44921875 15.27734375 C-15.48219953 9.13192584 -13.49679805 5.58289453 -9.1875 1.125 C-5.96860302 -0.53043273 -3.56753756 -0.37553027 0 0 Z " fill="#131310" transform="translate(735,239)"/>
<path d="M0 0 C2.28125 0.16796875 2.28125 0.16796875 5 1 C6.84375 3.36328125 6.84375 3.36328125 8.5 6.3125 C10.85947988 10.48054347 12.86443011 13.47237766 17 16 C20.44198359 16.51899187 20.44198359 16.51899187 24.0625 16.3125 C25.27035156 16.28800781 26.47820312 16.26351563 27.72265625 16.23828125 C30.80752004 16.11348972 30.80752004 16.11348972 32.96484375 15.48828125 C36.1356799 14.72752402 39.2479355 14.8685983 42.5 14.875 C43.8096875 14.87242187 45.119375 14.86984375 46.46875 14.8671875 C49.29863013 14.97362104 51.31964959 15.30588535 54 16 C56.28869404 16.14338806 58.58200956 16.22041303 60.875 16.25 C62.66550781 16.28867187 62.66550781 16.28867187 64.4921875 16.328125 C68.48118686 15.9549892 70.68282602 15.24682021 74 13 C75.91916707 10.21321671 77.46618704 7.46947009 79.00976562 4.47460938 C79.97265625 2.73828125 79.97265625 2.73828125 82 0 C84.74609375 -0.39453125 84.74609375 -0.39453125 87 0 C87.4186762 5.96613583 86.98671303 10.25603421 83 15 C76.32682027 21.04845652 69.96173225 24.51983911 60.8125 24.25 C59.74612305 24.24226563 59.74612305 24.24226563 58.65820312 24.234375 C55.52404234 24.18720043 52.99090091 23.99696697 50 23 C47.28073978 22.90389309 44.59335046 22.86066775 41.875 22.875 C41.13378906 22.87113281 40.39257812 22.86726563 39.62890625 22.86328125 C36.01770031 22.53253342 36.01770031 22.53253342 33 24 C17.70080321 24.99196787 17.70080321 24.99196787 11 21 C9.96875 20.443125 8.9375 19.88625 7.875 19.3125 C3.59315013 15.86840337 0.37768489 12.08362984 -0.30859375 6.48046875 C-0.3120345 4.29559355 -0.22627033 2.17219521 0 0 Z " fill="#f2f3e2" transform="translate(169,265)"/>
<path d="M0 0 C2.536875 -0.061875 5.07375 -0.12375 7.6875 -0.1875 C8.47729248 -0.21481201 9.26708496 -0.24212402 10.08081055 -0.27026367 C14.62090198 -0.3236495 17.37900572 0.25136763 21 3 C22.72584734 4.72584734 22.2533507 6.96209367 22.3125 9.3125 C22.27129699 14.60708712 22.27129699 14.60708712 20.1875 17.625 C15.97799813 20.2709726 12.10647022 20.12024636 7.3125 20.0625 C3.6928125 20.0315625 3.6928125 20.0315625 0 20 C0 13.4 0 6.8 0 0 Z " fill="#131310" transform="translate(442,221)"/>
<path d="M0 0 C2.536875 -0.061875 5.07375 -0.12375 7.6875 -0.1875 C8.47729248 -0.21481201 9.26708496 -0.24212402 10.08081055 -0.27026367 C14.62090198 -0.3236495 17.37900572 0.25136763 21 3 C22.72584734 4.72584734 22.2533507 6.96209367 22.3125 9.3125 C22.27129699 14.60708712 22.27129699 14.60708712 20.1875 17.625 C15.97799813 20.2709726 12.10647022 20.12024636 7.3125 20.0625 C3.6928125 20.0315625 3.6928125 20.0315625 0 20 C0 13.4 0 6.8 0 0 Z " fill="#131310" transform="translate(442,83)"/>
<path d="M0 0 C0.456 8.968 0.456 8.968 -3 13 C-7.62293159 16.3516254 -12.00310152 16.35272283 -17.51171875 16.3984375 C-20 16 -20 16 -21.80078125 14.69140625 C-23.86290326 11.78294101 -23.48087755 9.42625257 -23 6 C-16.68807533 -0.8688592 -8.64423318 -0.25177378 0 0 Z " fill="#131310" transform="translate(557,262)"/>
<path d="M0 0 C0.91628959 8.73868778 0.91628959 8.73868778 -1.265625 11.7421875 C-6.32536252 15.89313721 -10.01051413 16.34777639 -16.35546875 16.28125 C-19 16 -19 16 -21.6875 14.3125 C-23.32019642 11.4358444 -23.79083369 10.24241811 -23 7 C-16.16609244 0.00338036 -9.41687067 -0.30160796 0 0 Z " fill="#131310" transform="translate(835,262)"/>
<path d="M0 0 C1.04929687 -0.01417969 2.09859375 -0.02835937 3.1796875 -0.04296875 C6.10475165 0.18591558 7.69532143 0.593367 10.125 2.1875 C12.98395686 5.96540728 13.125 7.20582562 13.125 12.1875 C4.215 12.1875 -4.695 12.1875 -13.875 12.1875 C-12.7315811 6.47040548 -11.68417917 5.2753996 -7.875 1.1875 C-5.17835792 -0.16082104 -3.00912479 0.01839318 0 0 Z " fill="#131310" transform="translate(764.875,98.8125)"/>
</svg>
