<?xml version="1.0" encoding="utf-8"?>
<!-- Generator: Adobe Illustrator 28.0.0, SVG Export Plug-In . SVG Version: 6.00 Build 0)  -->
<svg version="1.0" id="katman_1" xmlns="http://www.w3.org/2000/svg" xmlns:xlink="http://www.w3.org/1999/xlink" x="0px" y="0px"
	 viewBox="0 225 841.89 150" style="enable-background:new 0 0 841.89 595.28;" xml:space="preserve">
<style type="text/css">
	.st0{fill:#f2f3e2;}
</style>
<path class="st0" d="M331.36,264.07h25.44v102.6h-25.44V264.07z M179.52,329.93c-18.67,0-30.16,13.95-53.97,13.95
	c-25.65,0-46.78-20.93-46.78-46.78s21.13-46.99,46.78-46.99s46.78,21.34,46.78,46.99c0,8-1.64,16.83-4.92,22.98
	c10.05-2.26,17.24-2.67,27.09,0c2.26-7.18,3.49-14.98,3.49-22.98c0-40.01-32.01-72.64-72.43-72.64s-72.43,32.63-72.43,72.64
	s32.42,72.43,72.43,72.43c28.52,0,37.76-13.54,52.73-13.54c7.59,0,11.29,6.16,12.72,14.36l24.42-5.95
	C212.76,343.07,199.22,329.93,179.52,329.93z M344.09,224.47c-8.82,0-15.39,6.57-15.39,14.98s6.57,14.98,15.39,14.98
	s15.39-6.57,15.39-14.98S352.91,224.47,344.09,224.47z M285.61,320.7c0,14.16-7.18,24.62-22.37,24.62
	c-14.16,0-19.08-9.23-19.08-23.8v-57.45h-25.65v60.12c0,29.14,13.75,44.53,39.6,44.53c10.47,0,22.51-4.32,28.73-13.14v11.09h24.21
	v-102.6h-25.44V320.7z M427.39,344.91c-17.85,0-29.96-12.52-29.96-29.55c0-17.03,12.11-29.55,29.96-29.55
	c9.64,0,15.8,2.67,22.57,8.62l15.18-18.47c-11.29-10.05-24.42-14.36-38.99-14.36c-31.8,0-54.79,22.37-54.79,53.76
	s22.98,53.76,54.79,53.76c14.57,0,29.14-4.31,40.42-14.36l-14.77-18.47C444.83,342.25,437.04,344.91,427.39,344.91z M738.87,262.02
	c-10.47,0-22.51,4.32-28.73,13.14v-11.09h-24.21v102.6h25.44v-56.63c0-14.16,7.18-24.62,22.37-24.62c14.16,0,19.08,9.23,19.08,23.8
	v57.45h25.65v-60.12C778.47,277.4,764.73,262.02,738.87,262.02z M671.36,312.9c0,3.69,0,9.03-0.41,11.7h-76.47
	c1.87,12.26,13.53,21.54,29.48,21.54c9.44,0,18.67-3.08,25.44-8.82l13.75,17.44c-11.49,10.46-25.65,14.36-40.01,14.36
	c-31.19,0-54.99-19.29-54.99-53.55c0-30.16,21.75-53.97,52.32-53.97C649.41,261.61,671.36,283.56,671.36,312.9z M594.69,304.7h51.3
	c-2.62-12.43-11.88-20.72-25.3-20.72S597.04,292.29,594.69,304.7z M571.64,264.07h-30.16l-38.99,42.34v-79.69h-25.44v139.94h25.44
	v-27.53l11.5-12.82l29.13,40.14l0.21,0.21h28.93l-41.32-57.73L571.64,264.07L571.64,264.07z"/>
<path class="st0" d="M783.7,262c2.98,0,5.23,2.25,5.23,5.23s-2.25,5.23-5.23,5.23s-5.23-2.22-5.23-5.23S780.7,262,783.7,262z
	 M783.7,271.49c2.41,0,4.2-1.81,4.2-4.25c0-2.44-1.79-4.25-4.2-4.25c-2.41,0-4.2,1.81-4.2,4.25
	C779.5,269.67,781.29,271.49,783.7,271.49z M781.83,264.49h2.12c1.03,0,1.68,0.65,1.68,1.63c0,0.62-0.35,1.14-0.87,1.38l1.52,2.46
	h-1.19l-1.35-2.25h-0.89v2.25h-1L781.83,264.49L781.83,264.49z M783.78,266.85c0.52,0,0.84-0.3,0.84-0.73s-0.33-0.76-0.84-0.76
	h-0.95v1.49L783.78,266.85L783.78,266.85z"/>
</svg>
